<svg width="321" height="36" viewBox="0 0 321 36" fill="none" xmlns="http://www.w3.org/2000/svg">
<path d="M50.7 36L66.95 0.799997H60.5L48.15 27.8L35.95 0.799997H31L18.65 27.8L6.4 0.799997H0L16.2 36H21.05L33.5 9L45.7 36H50.7ZM109.643 36V30.8H80.0934V20H108.143V14.8H80.0934V6H109.643V0.799997H73.4434V36H109.643ZM147.289 36C155.989 36 158.439 32.4 158.439 28.4V23.25C158.439 19.85 156.489 18.2 153.839 17.5C156.339 17 157.989 14.7 157.989 11.65V8.4C157.989 3.7 154.989 0.799997 147.189 0.799997H118.539V36H147.289ZM151.789 27.15C151.789 30 149.939 30.8 147.289 30.8H125.189V20.35H147.289C149.939 20.35 151.789 21.15 151.789 23.35V27.15ZM151.339 12.4C151.339 14.35 150.289 15.15 147.189 15.15H125.189V6H147.189C150.289 6 151.339 6.8 151.339 8.75V12.4ZM202.132 21.5V16.3H174.582V6H204.132V0.799997H167.932V36H174.582V21.5H202.132ZM217.877 36V0.799997H211.227V36H217.877ZM274.498 36V0.799997H268.698V26.95L233.648 0.799997H227.898V36H233.698V8.6L271.248 36H274.498ZM320.425 36V30.8H290.875V20H318.925V14.8H290.875V6H320.425V0.799997H284.225V36H320.425Z" fill="white"/>
</svg>
